<?xml version="1.0" encoding="utf-8"?>
<!-- Generator: Adobe Illustrator 16.0.0, SVG Export Plug-In . SVG Version: 6.00 Build 0)  -->
<!DOCTYPE svg PUBLIC "-//W3C//DTD SVG 1.1//EN" "http://www.w3.org/Graphics/SVG/1.1/DTD/svg11.dtd">
<svg version="1.1" id="Layer_1" xmlns="http://www.w3.org/2000/svg" xmlns:xlink="http://www.w3.org/1999/xlink" x="0px" y="0px"
	 width="432px" height="576px" viewBox="0 0 432 576" enable-background="new 0 0 432 576" xml:space="preserve">
<g>
	<g>
		<path fill="#00695C" d="M324.173,411.466h-28.382l-27.346-163.987c5.745-0.562,10.281-5.357,10.281-11.232
			c0-2.981-1.166-5.659-3.023-7.69c17.322-16.502,27.389-39.484,27.389-63.893c0-48.729-39.615-88.344-88.345-88.344
			c-48.686,0-88.301,39.615-88.301,88.301c0,24.149,9.936,47.045,27.043,63.547c-2.031,2.074-3.327,4.882-3.327,7.992
			c0,5.702,4.234,10.368,9.677,11.188l-24.365,164.074h-27.648c-5.789,0-10.498,4.708-10.498,10.54
			c0,5.789,4.709,10.498,10.498,10.498h0.043v61.775c0,2.981,2.419,5.4,5.4,5.4h205.502c2.981,0,5.4-2.419,5.4-5.4v-61.775h0.043
			c5.789,0,10.498-4.709,10.498-10.498C334.714,416.175,330.005,411.466,324.173,411.466z M150.207,174.773
			c-0.303,0.043-0.605,0.086-0.907,0.086c-2.592,0-4.882-1.858-5.313-4.536c-0.086-0.519-7.949-52.013,49.507-72.23
			c2.808-0.994,5.918,0.519,6.912,3.326c0.994,2.808-0.475,5.918-3.326,6.869c-48.989,17.237-42.725,58.493-42.422,60.264
			C155.131,171.49,153.144,174.298,150.207,174.773z M158.846,393.148l20.261-120.312c0.604-3.672,4.104-6.178,7.776-5.53
			c3.672,0.605,6.178,4.104,5.529,7.776l-20.261,120.312c-0.562,3.284-3.413,5.66-6.653,5.66c-0.389,0-0.734-0.043-1.123-0.087
			C160.704,400.32,158.198,396.821,158.846,393.148z"/>
	</g>
</g>
</svg>
